<svg width="20" height="20" viewBox="0 0 20 20" fill="none" xmlns="http://www.w3.org/2000/svg">
<path d="M19.6428 9.54255C19.468 9.31901 15.3036 4.06714 10.0002 4.06714C4.69639 4.06714 0.53197 9.31901 0.357205 9.54255L0 9.99976L0.357205 10.457C0.53197 10.6805 4.69639 15.9326 10.0002 15.9326C15.3036 15.9326 19.468 10.6805 19.6428 10.457L20 9.99976L19.6428 9.54255ZM10.0002 14.4476C6.27027 14.4476 3.01458 11.2182 1.9197 10C3.01508 8.7816 6.27051 5.55265 10.0002 5.55265C13.7297 5.55265 16.9854 8.78185 18.0806 10C16.9849 11.2184 13.7295 14.4476 10.0002 14.4476Z" fill="white"/>
<path d="M10.0001 5.93689C7.75931 5.93689 5.9364 7.75955 5.9364 10.0001C5.9364 12.2411 7.75931 14.064 10.0001 14.064C12.2408 14.064 14.0637 12.2411 14.0637 10.0001C14.0637 7.75955 12.2408 5.93689 10.0001 5.93689ZM10.0001 12.5785C8.57818 12.5785 7.42166 11.4217 7.42166 9.99981C7.42166 8.57842 8.57818 7.4219 10.0001 7.4219C11.4217 7.4219 12.5785 8.57842 12.5785 9.99981C12.5785 11.4217 11.4217 12.5785 10.0001 12.5785Z" fill="white"/>
</svg>
