<svg width="18" height="18" viewBox="0 0 18 18" fill="none" xmlns="http://www.w3.org/2000/svg">
<g clip-path="url(#clip0_202_10020)">
<path d="M16.5539 2.97731C14.5962 1.0202 11.4115 1.0202 9.45442 2.97731L8.99984 3.43162L8.54553 2.97731C6.58842 1.01993 3.40347 1.01993 1.44635 2.97731C-0.471025 4.89469 -0.483475 7.93394 1.41748 10.0471C3.15128 11.9737 8.26473 16.1362 8.48169 16.3123C8.62898 16.4321 8.8062 16.4904 8.98236 16.4904C8.98819 16.4904 8.99402 16.4904 8.99958 16.4901C9.18183 16.4986 9.36541 16.436 9.51747 16.3123C9.73442 16.1362 14.8484 11.9737 16.5827 10.0468C18.4834 7.93394 18.471 4.89469 16.5539 2.97731ZM15.4013 8.98376C14.0495 10.4855 10.3336 13.5828 8.99958 14.6819C7.66552 13.583 3.9505 10.486 2.59895 8.98402C1.27284 7.51009 1.26039 5.41099 2.57008 4.1013C3.23896 3.43268 4.11739 3.09811 4.99581 3.09811C5.87423 3.09811 6.75266 3.43242 7.42154 4.1013L8.42076 5.10052C8.53971 5.21946 8.68964 5.29046 8.84699 5.31536C9.10236 5.37019 9.37945 5.29893 9.57813 5.10079L10.5779 4.1013C11.9159 2.7638 14.0924 2.76406 15.4296 4.1013C16.7393 5.41099 16.7268 7.51009 15.4013 8.98376Z" fill="white"/>
</g>
<defs>
<clipPath id="clip0_202_10020">
<rect width="18" height="18" fill="white"/>
</clipPath>
</defs>
</svg>
